<svg width="2000" height="2000" viewBox="0 0 2000 2000" fill="none" xmlns="http://www.w3.org/2000/svg">
<g clip-path="url(#clip0_2_71)">
<mask id="mask0_2_71" style="mask-type:alpha" maskUnits="userSpaceOnUse" x="0" y="0" width="2000" height="2000">
<circle cx="1000" cy="1000" r="1000" fill="#F3F5F9"/>
</mask>
<g mask="url(#mask0_2_71)">
<rect y="667" width="2001" height="333" fill="#FA812F"/>
<rect x="-1" y="333" width="2001" height="334" fill="#FAA52F"/>
<rect x="-1" width="2001" height="333" fill="#FAC72F"/>
<rect x="-1" y="1000" width="2001" height="1000" fill="#374151"/>
<path d="M1203.63 1428.26C1141.92 1457.59 1072.88 1474 1000 1474C927.125 1474 858.083 1457.59 796.368 1428.26H1203.63ZM1337.48 1333.26C1320.47 1350.44 1302.15 1366.33 1282.69 1380.76H717.314C697.853 1366.33 679.533 1350.44 662.517 1333.26H1337.48ZM1410.43 1238.26C1400.79 1254.75 1390.19 1270.61 1378.71 1285.76H621.294C609.805 1270.61 599.205 1254.75 589.57 1238.26H1410.43ZM1452.7 1143.26C1447.53 1159.49 1441.51 1175.34 1434.7 1190.76H565.299C558.487 1175.34 552.47 1159.49 547.303 1143.26H1452.7ZM1472.48 1048.26C1470.82 1064.34 1468.36 1080.19 1465.14 1095.76H534.864C531.642 1080.19 529.182 1064.34 527.524 1048.26H1472.48ZM1000 524C1262.34 524 1475 736.665 1475 999C1475 999.587 1475 1000.17 1474.99 1000.76H525.006C525.004 1000.17 525 999.587 525 999C525 736.665 737.665 524 1000 524Z" fill="#FFDE7C"/>
</g>
</g>
<defs>
<clipPath id="clip0_2_71">
<rect width="2000" height="2000" fill="white"/>
</clipPath>
</defs>
</svg>
